<svg
    t="1662607438182"
    class="icon"
    viewBox="0 0 1024 1024"
    version="1.1"
    xmlns="http://www.w3.org/2000/svg"
    p-id="28118"
    width="200"
    height="200"
    >
    <path
        d="M302.787561 407.585224a37.1 37.1 0 1 0 72.214041-17.052045 37.1 37.1 0 1 0-72.214041 17.052045Z"
        fill="#50B674"
        p-id="28119"
        />
    <path
        d="M595.2 568.57m-29.7 0a29.7 29.7 0 1 0 59.4 0 29.7 29.7 0 1 0-59.4 0Z"
        fill="#50B674"
        p-id="28120"
        />
    <path
        d="M511.46 436.18c20.49 0 37.1-16.61 37.1-37.1s-16.61-37.1-37.1-37.1c-20.48 0-37.09 16.61-37.1 37.1 0 20.49 16.61 37.1 37.1 37.1z"
        fill="#50B674"
        p-id="28121"
        />
    <path
        d="M843.99 0H180.02C81.01 0 0 81.01 0 180.02v663.96C0 942.99 81.01 1024 180.02 1024h663.96c99.01 0 180.02-81.01 180.02-180.01V180.02C1024 81.01 942.99 0 843.99 0zM424.76 683.75c-33.7 0-65.84-5.66-95.2-15.9l-83.11 45.57 25.1-74.03c-59.59-39.07-97.99-100.39-97.99-169.35 0-118.03 112.47-213.71 251.21-213.71 122.97 0 225.28 75.16 246.96 174.43-3.41-0.12-6.83-0.2-10.27-0.2-126.04 0-228.22 86.64-228.23 193.51 0 20.6 3.81 40.44 10.84 59.06-6.38 0.41-12.81 0.62-19.31 0.62z m358.31 87.68l21.08 62.17-72.52-39.77c-21.96 6.53-45.57 10.09-70.17 10.09-117.14 0-212.1-80.52-212.1-179.84s94.96-179.84 212.1-179.84 212.1 80.52 212.1 179.84c0 60.95-35.77 114.82-90.49 147.35z"
        fill="#50B674"
        p-id="28122"
        />
    <path
        d="M733.38 568.57m-29.7 0a29.7 29.7 0 1 0 59.4 0 29.7 29.7 0 1 0-59.4 0Z"
        fill="#50B674"
        p-id="28123"
        />
</svg>